 <svg  version="1.0" xmlns="http://www.w3.org/2000/svg"  width="300.000000pt" height="300.000000pt" viewBox="0 0 300.000000 300.000000"  preserveAspectRatio="xMidYMid meet">  <g transform="translate(0.000000,300.000000) scale(0.100000,-0.100000)" fill="#37dbf1" stroke="none"> <path d="M392 2377 c-181 -547 -207 -637 -219 -752 -45 -420 97 -824 393 -1119 182 -182 397 -300 659 -362 115 -27 435 -27 550 0 277 65 481 180 674 380 173 178 282 375 348 631 22 86 26 125 29 285 2 136 -1 205 -12 260 -9 41 -17 86 -20 98 -3 13 -63 200 -134 415 -71 216 -151 457 -177 537 -26 80 -49 147 -51 150 -1 2 -107 -100 -235 -228 l-232 -232 -465 0 -465 0 -230 230 c-126 127 -232 230 -235 230 -3 -1 -83 -236 -178 -523z m413 253 c210 -209 211 -210 256 -211 312 -4 913 2 926 10 9 5 108 100 220 212 139 140 206 200 213 193 12 -12 311 -910 345 -1037 37 -138 51 -311 37 -449 -12 -114 -55 -305 -73 -322 -5 -6 -9 -16 -9 -23 0 -26 -90 -202 -147 -285 -54 -80 -179 -220 -246 -276 -167 -138 -401 -246 -616 -284 -100 -17 -360 -14 -456 7 -265 55 -486 176 -677 368 -54 54 -98 103 -98 108 0 6 -7 17 -15 26 -48 47 -155 237 -194 343 -79 215 -101 484 -57 710 13 68 99 349 114 375 4 6 8 17 9 25 1 8 50 157 108 330 58 173 108 323 110 332 5 24 24 58 33 58 3 0 101 -94 217 -210z"/> <path d="M899 1706 c-2 -3 -16 -6 -29 -8 -112 -17 -198 -141 -188 -272 9 -110 70 -188 171 -222 173 -58 342 65 340 246 -1 116 -63 205 -170 243 -44 16 -114 23 -124 13z m129 -42 c124 -51 177 -199 116 -322 -110 -221 -439 -139 -438 109 0 53 5 74 27 112 28 47 73 88 117 106 39 15 137 13 178 -5z"/> <path d="M1970 1691 c-104 -38 -181 -162 -166 -269 27 -186 212 -287 376 -204 63 32 114 92 131 155 24 91 -5 206 -67 265 -63 60 -189 85 -274 53z m222 -46 c23 -17 56 -52 72 -79 25 -40 30 -58 30 -114 1 -96 -43 -170 -124 -212 -116 -60 -256 -14 -314 102 -60 121 -12 262 109 320 30 14 57 18 112 16 61 -3 78 -8 115 -33z"/> </g> </svg> 